<?xml version="1.0" encoding="UTF-8" standalone="no"?>
<svg version="1.1"
     baseProfile="full"
     xmlns="http://www.w3.org/2000/svg" style="padding:10px;margin:10px"
     width="550" height="550">
<rect x="0" y="0" width="50" height="50" style="fill:LightCoral;opacity:1"/>
<text x="16" y="35" style="font-weight:bold" font-size="30px">2</text>
<rect x="0" y="50" width="50" height="50" style="fill:LightCoral;opacity:1"/>
<text x="16" y="85" style="font-weight:bold" font-size="30px">3</text>
<rect x="0" y="100" width="50" height="50" style="fill:DarkMagenta;opacity:1"/>
<text x="16" y="135" style="font-weight:bold" font-size="30px">8</text>
<rect x="0" y="150" width="50" height="50" style="fill:DarkMagenta;opacity:1"/>
<text x="16" y="185" style="font-weight:bold" font-size="30px">4</text>
<rect x="0" y="200" width="50" height="50" style="fill:DarkOrange;opacity:1"/>
<text x="16" y="235" style="font-weight:bold" font-size="30px">5</text>
<rect x="0" y="250" width="50" height="50" style="fill:DarkOrange;opacity:1"/>
<text x="16" y="285" style="font-weight:bold" font-size="30px">7</text>
<rect x="0" y="300" width="50" height="50" style="fill:Yellow;opacity:1"/>
<text x="16" y="335" style="font-weight:bold" font-size="30px">6</text>
<rect x="0" y="350" width="50" height="50" style="fill:DarkKhaki;opacity:1"/>
<text x="16" y="385" style="font-weight:bold" font-size="30px">1</text>
<rect x="0" y="400" width="50" height="50" style="fill:Lavender;opacity:1"/>
<text x="16" y="435" style="font-weight:bold" font-size="30px">9</text>
<rect x="50" y="0" width="50" height="50" style="fill:LightCoral;opacity:1"/>
<text x="66" y="35" style="font-weight:bold" font-size="30px">7</text>
<rect x="50" y="50" width="50" height="50" style="fill:LightCoral;opacity:1"/>
<text x="66" y="85" style="font-weight:bold" font-size="30px">1</text>
<rect x="50" y="100" width="50" height="50" style="fill:LightPink;opacity:1"/>
<text x="66" y="135" style="font-weight:bold" font-size="30px">4</text>
<rect x="50" y="150" width="50" height="50" style="fill:LightPink;opacity:1"/>
<text x="66" y="185" style="font-weight:bold" font-size="30px">6</text>
<rect x="50" y="200" width="50" height="50" style="fill:LightPink;opacity:1"/>
<text x="66" y="235" style="font-weight:bold" font-size="30px">2</text>
<rect x="50" y="250" width="50" height="50" style="fill:LawnGreen;opacity:1"/>
<text x="66" y="285" style="font-weight:bold" font-size="30px">9</text>
<rect x="50" y="300" width="50" height="50" style="fill:Yellow;opacity:1"/>
<text x="66" y="335" style="font-weight:bold" font-size="30px">5</text>
<rect x="50" y="350" width="50" height="50" style="fill:DarkKhaki;opacity:1"/>
<text x="66" y="385" style="font-weight:bold" font-size="30px">3</text>
<rect x="50" y="400" width="50" height="50" style="fill:Lavender;opacity:1"/>
<text x="66" y="435" style="font-weight:bold" font-size="30px">8</text>
<rect x="100" y="0" width="50" height="50" style="fill:SteelBlue;opacity:1"/>
<text x="116" y="35" style="font-weight:bold" font-size="30px">9</text>
<rect x="100" y="50" width="50" height="50" style="fill:LightCoral;opacity:1"/>
<text x="116" y="85" style="font-weight:bold" font-size="30px">6</text>
<rect x="100" y="100" width="50" height="50" style="fill:LightPink;opacity:1"/>
<text x="116" y="135" style="font-weight:bold" font-size="30px">5</text>
<rect x="100" y="150" width="50" height="50" style="fill:Teal;opacity:1"/>
<text x="116" y="185" style="font-weight:bold" font-size="30px">3</text>
<rect x="100" y="200" width="50" height="50" style="fill:Teal;opacity:1"/>
<text x="116" y="235" style="font-weight:bold" font-size="30px">1</text>
<rect x="100" y="250" width="50" height="50" style="fill:LawnGreen;opacity:1"/>
<text x="116" y="285" style="font-weight:bold" font-size="30px">8</text>
<rect x="100" y="300" width="50" height="50" style="fill:SaddleBrown;opacity:1"/>
<text x="116" y="335" style="font-weight:bold" font-size="30px">4</text>
<rect x="100" y="350" width="50" height="50" style="fill:SaddleBrown;opacity:1"/>
<text x="116" y="385" style="font-weight:bold" font-size="30px">2</text>
<rect x="100" y="400" width="50" height="50" style="fill:Cyan;opacity:1"/>
<text x="116" y="435" style="font-weight:bold" font-size="30px">7</text>
<rect x="150" y="0" width="50" height="50" style="fill:SteelBlue;opacity:1"/>
<text x="166" y="35" style="font-weight:bold" font-size="30px">1</text>
<rect x="150" y="50" width="50" height="50" style="fill:SteelBlue;opacity:1"/>
<text x="166" y="85" style="font-weight:bold" font-size="30px">8</text>
<rect x="150" y="100" width="50" height="50" style="fill:LightCoral;opacity:0.3"/>
<text x="166" y="135" style="font-weight:bold" font-size="30px">9</text>
<rect x="150" y="150" width="50" height="50" style="fill:Teal;opacity:1"/>
<text x="166" y="185" style="font-weight:bold" font-size="30px">2</text>
<rect x="150" y="200" width="50" height="50" style="fill:DarkMagenta;opacity:0.3"/>
<text x="166" y="235" style="font-weight:bold" font-size="30px">4</text>
<rect x="150" y="250" width="50" height="50" style="fill:DarkOrange;opacity:0.3"/>
<text x="166" y="285" style="font-weight:bold" font-size="30px">5</text>
<rect x="150" y="300" width="50" height="50" style="fill:SaddleBrown;opacity:1"/>
<text x="166" y="335" style="font-weight:bold" font-size="30px">3</text>
<rect x="150" y="350" width="50" height="50" style="fill:SaddleBrown;opacity:1"/>
<text x="166" y="385" style="font-weight:bold" font-size="30px">7</text>
<rect x="150" y="400" width="50" height="50" style="fill:Cyan;opacity:1"/>
<text x="166" y="435" style="font-weight:bold" font-size="30px">6</text>
<rect x="200" y="0" width="50" height="50" style="fill:Yellow;opacity:0.3"/>
<text x="216" y="35" style="font-weight:bold" font-size="30px">3</text>
<rect x="200" y="50" width="50" height="50" style="fill:SteelBlue;opacity:1"/>
<text x="216" y="85" style="font-weight:bold" font-size="30px">4</text>
<rect x="200" y="100" width="50" height="50" style="fill:LightCoral;opacity:0.3"/>
<text x="216" y="135" style="font-weight:bold" font-size="30px">7</text>
<rect x="200" y="150" width="50" height="50" style="fill:DarkKhaki;opacity:0.3"/>
<text x="216" y="185" style="font-weight:bold" font-size="30px">1</text>
<rect x="200" y="200" width="50" height="50" style="fill:DarkMagenta;opacity:0.3"/>
<text x="216" y="235" style="font-weight:bold" font-size="30px">9</text>
<rect x="200" y="250" width="50" height="50" style="fill:DarkOrange;opacity:0.3"/>
<text x="216" y="285" style="font-weight:bold" font-size="30px">6</text>
<rect x="200" y="300" width="50" height="50" style="fill:DarkOrange;opacity:0.3"/>
<text x="216" y="335" style="font-weight:bold" font-size="30px">2</text>
<rect x="200" y="350" width="50" height="50" style="fill:DarkOrange;opacity:0.3"/>
<text x="216" y="385" style="font-weight:bold" font-size="30px">8</text>
<rect x="200" y="400" width="50" height="50" style="fill:Cyan;opacity:1"/>
<text x="216" y="435" style="font-weight:bold" font-size="30px">5</text>
<rect x="250" y="0" width="50" height="50" style="fill:Yellow;opacity:0.3"/>
<text x="266" y="35" style="font-weight:bold" font-size="30px">6</text>
<rect x="250" y="50" width="50" height="50" style="fill:Lavender;opacity:0.3"/>
<text x="266" y="85" style="font-weight:bold" font-size="30px">5</text>
<rect x="250" y="100" width="50" height="50" style="fill:LightPink;opacity:0.3"/>
<text x="266" y="135" style="font-weight:bold" font-size="30px">2</text>
<rect x="250" y="150" width="50" height="50" style="fill:DarkKhaki;opacity:0.3"/>
<text x="266" y="185" style="font-weight:bold" font-size="30px">7</text>
<rect x="250" y="200" width="50" height="50" style="fill:LawnGreen;opacity:0.3"/>
<text x="266" y="235" style="font-weight:bold" font-size="30px">8</text>
<rect x="250" y="250" width="50" height="50" style="fill:DarkOrange;opacity:0.3"/>
<text x="266" y="285" style="font-weight:bold" font-size="30px">3</text>
<rect x="250" y="300" width="50" height="50" style="fill:DarkOrange;opacity:0.3"/>
<text x="266" y="335" style="font-weight:bold" font-size="30px">1</text>
<rect x="250" y="350" width="50" height="50" style="fill:SteelBlue;opacity:0.3"/>
<text x="266" y="385" style="font-weight:bold" font-size="30px">9</text>
<rect x="250" y="400" width="50" height="50" style="fill:SteelBlue;opacity:0.3"/>
<text x="266" y="435" style="font-weight:bold" font-size="30px">4</text>
<rect x="300" y="0" width="50" height="50" style="fill:Teal;opacity:0.3"/>
<text x="316" y="35" style="font-weight:bold" font-size="30px">5</text>
<rect x="300" y="50" width="50" height="50" style="fill:Lavender;opacity:0.3"/>
<text x="316" y="85" style="font-weight:bold" font-size="30px">2</text>
<rect x="300" y="100" width="50" height="50" style="fill:LightPink;opacity:0.3"/>
<text x="316" y="135" style="font-weight:bold" font-size="30px">1</text>
<rect x="300" y="150" width="50" height="50" style="fill:DarkKhaki;opacity:0.3"/>
<text x="316" y="185" style="font-weight:bold" font-size="30px">8</text>
<rect x="300" y="200" width="50" height="50" style="fill:LawnGreen;opacity:0.3"/>
<text x="316" y="235" style="font-weight:bold" font-size="30px">7</text>
<rect x="300" y="250" width="50" height="50" style="fill:LawnGreen;opacity:0.3"/>
<text x="316" y="285" style="font-weight:bold" font-size="30px">4</text>
<rect x="300" y="300" width="50" height="50" style="fill:SaddleBrown;opacity:0.3"/>
<text x="316" y="335" style="font-weight:bold" font-size="30px">9</text>
<rect x="300" y="350" width="50" height="50" style="fill:SteelBlue;opacity:0.3"/>
<text x="316" y="385" style="font-weight:bold" font-size="30px">6</text>
<rect x="300" y="400" width="50" height="50" style="fill:SteelBlue;opacity:0.3"/>
<text x="316" y="435" style="font-weight:bold" font-size="30px">3</text>
<rect x="350" y="0" width="50" height="50" style="fill:Teal;opacity:0.3"/>
<text x="366" y="35" style="font-weight:bold" font-size="30px">4</text>
<rect x="350" y="50" width="50" height="50" style="fill:Cyan;opacity:0.3"/>
<text x="366" y="85" style="font-weight:bold" font-size="30px">7</text>
<rect x="350" y="100" width="50" height="50" style="fill:Cyan;opacity:0.3"/>
<text x="366" y="135" style="font-weight:bold" font-size="30px">3</text>
<rect x="350" y="150" width="50" height="50" style="fill:LightCoral;opacity:1"/>
<text x="366" y="185" style="font-weight:bold" font-size="30px">9</text>
<rect x="350" y="200" width="50" height="50" style="fill:LightCoral;opacity:1"/>
<text x="366" y="235" style="font-weight:bold" font-size="30px">6</text>
<rect x="350" y="250" width="50" height="50" style="fill:DarkMagenta;opacity:1"/>
<text x="366" y="285" style="font-weight:bold" font-size="30px">1</text>
<rect x="350" y="300" width="50" height="50" style="fill:SaddleBrown;opacity:0.3"/>
<text x="366" y="335" style="font-weight:bold" font-size="30px">8</text>
<rect x="350" y="350" width="50" height="50" style="fill:SaddleBrown;opacity:0.3"/>
<text x="366" y="385" style="font-weight:bold" font-size="30px">5</text>
<rect x="350" y="400" width="50" height="50" style="fill:SteelBlue;opacity:0.3"/>
<text x="366" y="435" style="font-weight:bold" font-size="30px">2</text>
<rect x="400" y="0" width="50" height="50" style="fill:Teal;opacity:0.3"/>
<text x="416" y="35" style="font-weight:bold" font-size="30px">8</text>
<rect x="400" y="50" width="50" height="50" style="fill:Cyan;opacity:0.3"/>
<text x="416" y="85" style="font-weight:bold" font-size="30px">9</text>
<rect x="400" y="100" width="50" height="50" style="fill:Cyan;opacity:0.3"/>
<text x="416" y="135" style="font-weight:bold" font-size="30px">6</text>
<rect x="400" y="150" width="50" height="50" style="fill:Cyan;opacity:0.3"/>
<text x="416" y="185" style="font-weight:bold" font-size="30px">5</text>
<rect x="400" y="200" width="50" height="50" style="fill:DarkMagenta;opacity:1"/>
<text x="416" y="235" style="font-weight:bold" font-size="30px">3</text>
<rect x="400" y="250" width="50" height="50" style="fill:DarkMagenta;opacity:1"/>
<text x="416" y="285" style="font-weight:bold" font-size="30px">2</text>
<rect x="400" y="300" width="50" height="50" style="fill:DarkMagenta;opacity:1"/>
<text x="416" y="335" style="font-weight:bold" font-size="30px">7</text>
<rect x="400" y="350" width="50" height="50" style="fill:DarkMagenta;opacity:1"/>
<text x="416" y="385" style="font-weight:bold" font-size="30px">4</text>
<rect x="400" y="400" width="50" height="50" style="fill:SteelBlue;opacity:0.3"/>
<text x="416" y="435" style="font-weight:bold" font-size="30px">1</text>
<text x="8" y="18" style="font-weight:bold" fill="red" font-size="15px">19</text>
<text x="8" y="118" style="font-weight:bold" fill="red" font-size="15px">12</text>
<text x="8" y="218" style="font-weight:bold" fill="red" font-size="15px">12</text>
<text x="8" y="318" style="font-weight:bold" fill="red" font-size="15px">11</text>
<text x="8" y="368" style="font-weight:bold" fill="red" font-size="15px">4</text>
<text x="8" y="418" style="font-weight:bold" fill="red" font-size="15px">17</text>
<text x="58" y="118" style="font-weight:bold" fill="red" font-size="15px">17</text>
<text x="58" y="268" style="font-weight:bold" fill="red" font-size="15px">17</text>
<text x="108" y="18" style="font-weight:bold" fill="red" font-size="15px">22</text>
<text x="108" y="168" style="font-weight:bold" fill="red" font-size="15px">6</text>
<text x="108" y="318" style="font-weight:bold" fill="red" font-size="15px">16</text>
<text x="108" y="418" style="font-weight:bold" fill="red" font-size="15px">18</text>
<text x="158" y="118" style="font-weight:bold" fill="red" font-size="15px">16</text>
<text x="158" y="218" style="font-weight:bold" fill="red" font-size="15px">13</text>
<text x="158" y="268" style="font-weight:bold" fill="red" font-size="15px">25</text>
<text x="208" y="18" style="font-weight:bold" fill="red" font-size="15px">9</text>
<text x="208" y="168" style="font-weight:bold" fill="red" font-size="15px">16</text>
<text x="258" y="68" style="font-weight:bold" fill="red" font-size="15px">7</text>
<text x="258" y="118" style="font-weight:bold" fill="red" font-size="15px">3</text>
<text x="258" y="218" style="font-weight:bold" fill="red" font-size="15px">19</text>
<text x="258" y="368" style="font-weight:bold" fill="red" font-size="15px">25</text>
<text x="308" y="18" style="font-weight:bold" fill="red" font-size="15px">17</text>
<text x="308" y="318" style="font-weight:bold" fill="red" font-size="15px">22</text>
<text x="358" y="68" style="font-weight:bold" fill="red" font-size="15px">30</text>
<text x="358" y="168" style="font-weight:bold" fill="red" font-size="15px">15</text>
<text x="358" y="268" style="font-weight:bold" fill="red" font-size="15px">17</text>
<polyline points="0,0 0,450" style="fill:none; stroke:black ; stroke-width:5" />
<polyline points="0,0 450,0" style="fill:none; stroke:black ; stroke-width:5" />
<polyline points="50,0 50,450" style="fill:none; stroke:black ; stroke-width:1" />
<polyline points="0,50 450,50" style="fill:none; stroke:black ; stroke-width:1" />
<polyline points="100,0 100,450" style="fill:none; stroke:black ; stroke-width:1" />
<polyline points="0,100 450,100" style="fill:none; stroke:black ; stroke-width:1" />
<polyline points="150,0 150,450" style="fill:none; stroke:black ; stroke-width:5" />
<polyline points="0,150 450,150" style="fill:none; stroke:black ; stroke-width:5" />
<polyline points="200,0 200,450" style="fill:none; stroke:black ; stroke-width:1" />
<polyline points="0,200 450,200" style="fill:none; stroke:black ; stroke-width:1" />
<polyline points="250,0 250,450" style="fill:none; stroke:black ; stroke-width:1" />
<polyline points="0,250 450,250" style="fill:none; stroke:black ; stroke-width:1" />
<polyline points="300,0 300,450" style="fill:none; stroke:black ; stroke-width:5" />
<polyline points="0,300 450,300" style="fill:none; stroke:black ; stroke-width:5" />
<polyline points="350,0 350,450" style="fill:none; stroke:black ; stroke-width:1" />
<polyline points="0,350 450,350" style="fill:none; stroke:black ; stroke-width:1" />
<polyline points="400,0 400,450" style="fill:none; stroke:black ; stroke-width:1" />
<polyline points="0,400 450,400" style="fill:none; stroke:black ; stroke-width:1" />
<polyline points="450,0 450,450" style="fill:none; stroke:black ; stroke-width:5" />
<polyline points="0,450 450,450" style="fill:none; stroke:black ; stroke-width:5" />
</svg>